# xmcd
#
# Track frame offsets: 
#        150
#        16702
#        29932
#        38620
#        50630
#        62815
#        76782
#        91664
#        108070
#        120996
#        135309
#        146471
#        158919
#        173981
#
# Disc length: 2496 seconds
#
# Revision: 0
# Processed by: cddbd v1.5.1PL0 Copyright (c) Steve Scherf et al.
# Submitted via: ExactAudioCopy v0.95b1
#
DISCID=a509be0e
DTITLE=Various Artist - blue water
DYEAR=1998
DGENRE=Country
TTITLE0=wild flowers - Dolly Parton
TTITLE1=today i started loving you again - Haggard. Owens
TTITLE2=7 words - Lösnitz, Nilsson, Lindequist
TTITLE3=honky tonk angels - Miller
TTITLE4=Amanda - Bob Mc Dill
TTITLE5=blue water - Lösnitz, Nilsson, Lindequist
TTITLE6=yesterday heartache - Lösnitz, Nilsson, Lindequist
TTITLE7=night life - W.Nelson, Buskirk, Breeland
TTITLE8=my shoes keep walking back to you - Ross, Wills
TTITLE9=rocking years - F.Parton
TTITLE10=silver threads and golden needles - Rhodes, Reynolds
TTITLE11=before the next teardrops fall - Keith, Peters
TTITLE12=love isn`t love - Tappan, Roth
TTITLE13=dosn`t think twice it`s alright - Bob Dylan
EXTD=
EXTT0=
EXTT1=
EXTT2=
EXTT3=
EXTT4=
EXTT5=
EXTT6=
EXTT7=
EXTT8=
EXTT9=
EXTT10=
EXTT11=
EXTT12=
EXTT13=
PLAYORDER=
